# xmcd
#
# Track frame offsets:
#	150
#	14645
#	29882
#	52612
#	68150
#	83417
#	101390
#	116660
#	129395
#	153427
#	167070
#	183602
#	199130
#	214522
#
# Disc length: 3064 seconds
#
# Revision: 0
# Processed by: cddbd v1.5.1PL0 Copyright (c) Steve Scherf et al.
# Submitted via: audiograbber 1.83.01
#
DISCID=b80bf60e
DTITLE=StarDisc - SD021 - Country Hits Today
DYEAR=1900
DGENRE=Country
TTITLE0=Tim McGraw - I Like It, I Love It
TTITLE1=George Strait - Check Yes Or No
TTITLE2=Ty Herndon with S. Bentley - Heart Half Empty
TTITLE3=Alabama - In Pictures
TTITLE4=Pam Tillis - Deep Down
TTITLE5=Bryan White - Rebecca Lynn
TTITLE6=Ty England - Smoke In Her Eyes
TTITLE7=Little Texas - Life Goes On
TTITLE8=Vince Gill - Go Rest High On That Mountain
TTITLE9=Terri Clark - When Boy Meets Girl
TTITLE10=Rhett Akins - She Said Yes
TTITLE11=Lonestar - Tequila Talkin'
TTITLE12=Wade Hayes - What I Meant To Say
TTITLE13=Tim McGraw - Can't Be Really Gone
EXTD=
EXTT0=
EXTT1=
EXTT2=
EXTT3=
EXTT4=
EXTT5=
EXTT6=
EXTT7=
EXTT8=
EXTT9=
EXTT10=
EXTT11=
EXTT12=
EXTT13=
PLAYORDER=
